<svg width="28" height="17" viewBox="0 0 28 17" xmlns="http://www.w3.org/2000/svg">
<path d="M0.741211 2.33876C0.741211 1.48373 1.25631 1.02268 2.28652 0.955621L6.25636 0.980769C6.52279 0.980769 6.70042 1.10651 6.78923 1.35799C7.19776 2.61538 7.65513 3.70094 8.16135 4.61465C8.66758 5.52835 9.32922 6.58038 10.1463 7.77071C10.2173 7.9216 10.3328 7.99704 10.4926 7.99704C10.617 7.99704 10.7147 7.93836 10.7857 7.82101L10.8656 7.54438L10.8923 3.19379C10.8923 2.89201 10.8168 2.69083 10.6658 2.59024C10.5148 2.48965 10.2351 2.4142 9.82656 2.36391C9.50684 2.31361 9.34698 2.12919 9.34698 1.81065C9.34698 1.74359 9.35586 1.69329 9.37362 1.65976C9.74663 0.57002 10.8124 0.0251479 12.5708 0.0251479L14.0628 0C14.7378 0 15.2973 0.15927 15.7414 0.477811C16.1854 0.796351 16.4074 1.29931 16.4074 1.98669V7.69527C16.5318 7.77909 16.6472 7.82101 16.7538 7.82101C17.0202 7.82101 17.2511 7.67012 17.4465 7.36834C19.4004 4.78649 20.4572 3.05966 20.6171 2.18787C20.6171 2.1711 20.6348 2.12919 20.6704 2.06213C20.7947 1.81065 20.999 1.5927 21.2832 1.40828C21.5673 1.22387 21.816 1.09813 22.0292 1.03107C22.1002 0.997535 22.1801 0.980769 22.269 0.980769H26.3987L26.6651 1.00592C27.0203 1.00592 27.2956 1.16519 27.491 1.48373C27.5621 1.58432 27.6109 1.69329 27.6376 1.81065C27.6642 1.92801 27.682 2.04536 27.6909 2.16272C27.6997 2.28008 27.7042 2.34714 27.7042 2.36391V2.53994C27.5798 3.22732 27.2646 3.9608 26.7583 4.74038C26.2521 5.51997 25.6082 6.36243 24.8267 7.26775C24.0452 8.17308 23.5567 8.76825 23.3613 9.05326C23.2015 9.25444 23.1215 9.43886 23.1215 9.60651C23.1215 9.74063 23.1926 9.89152 23.3347 10.0592L27.2246 14.6864C27.4377 14.9546 27.5443 15.248 27.5443 15.5666C27.5443 15.9522 27.3845 16.2707 27.0647 16.5222C26.745 16.7737 26.3631 16.9162 25.9191 16.9497L25.4661 16.9749H21.4164C21.3986 16.9749 21.3631 16.979 21.3098 16.9874C21.2565 16.9958 21.221 17 21.2032 17C20.8125 17 20.4483 16.8407 20.1108 16.5222C19.9865 16.3881 19.1517 15.3989 17.6064 13.5547C17.5176 13.4374 17.3932 13.3284 17.2334 13.2278C17.1623 13.4961 17.0691 13.8817 16.9536 14.3846C16.8382 14.8876 16.7538 15.248 16.7005 15.466L16.6206 15.8935C16.443 16.4803 16.07 16.8323 15.5016 16.9497L15.1286 16.9749H12.5175C11.0433 16.9749 9.57345 16.3378 8.10807 15.0636C6.64269 13.7894 5.32385 12.1423 4.15155 10.122C2.97924 8.10182 1.88687 5.75049 0.874427 3.06805C0.785616 2.8501 0.741211 2.607 0.741211 2.33876ZM16.7538 8.85207C16.3808 8.85207 16.0433 8.75567 15.7414 8.56287C15.4394 8.37007 15.2884 8.10602 15.2884 7.77071V1.98669C15.2884 1.65138 15.1996 1.41248 15.022 1.26997C14.8444 1.12747 14.5335 1.05621 14.0895 1.05621L12.5708 1.10651C11.807 1.10651 11.2298 1.23225 10.839 1.48373C11.6205 1.8358 12.0113 2.40582 12.0113 3.19379V7.61982C11.9758 8.03895 11.7982 8.38683 11.4784 8.66346C11.1587 8.94009 10.8035 9.0784 10.4127 9.0784C9.87984 9.0784 9.47131 8.83531 9.18712 8.34911C7.80167 6.37081 6.77147 4.4931 6.0965 2.71598L5.85671 2.06213L2.31316 2.03698C2.08225 2.03698 1.95348 2.04956 1.92684 2.0747C1.90019 2.09985 1.88687 2.1711 1.88687 2.28846C1.88687 2.43935 1.90463 2.59862 1.94016 2.76627L2.49967 4.17456C3.99169 7.81262 5.61248 10.6795 7.36206 12.7751C9.11163 14.8708 10.8301 15.9186 12.5175 15.9186H15.1818C15.2884 15.9186 15.3684 15.8893 15.4216 15.8306C15.4749 15.7719 15.5193 15.6588 15.5549 15.4911L15.6081 15.2396L16.1144 13.0266C16.2565 12.7249 16.3808 12.5237 16.4874 12.4231C16.6828 12.2387 16.9137 12.1465 17.1801 12.1465C17.6064 12.1465 18.0416 12.3895 18.4856 12.8757L20.7503 15.5917C20.8924 15.8097 21.0434 15.9186 21.2032 15.9186H25.5994C26.1322 15.9186 26.3987 15.7929 26.3987 15.5414C26.3987 15.4576 26.372 15.3738 26.3187 15.2899L22.4555 10.7382C22.1535 10.3861 22.0025 10.0089 22.0025 9.60651C22.0025 9.20414 22.1446 8.81854 22.4288 8.4497C22.6597 8.1144 23.1082 7.55695 23.7743 6.77737C24.4404 5.99778 25.0221 5.26849 25.5194 4.5895C26.0168 3.9105 26.3454 3.29438 26.5052 2.74112L26.5852 2.4142C26.5674 2.38067 26.5585 2.32618 26.5585 2.25074C26.5585 2.1753 26.5496 2.11243 26.5319 2.06213H22.3489C22.0825 2.16272 21.8693 2.31361 21.7094 2.51479L21.5496 2.9926C21.1055 4.14941 19.9421 5.93491 18.0593 8.34911C17.6863 8.68442 17.2511 8.85207 16.7538 8.85207Z"/>
</svg>
