<svg width="25" height="19" viewBox="0 0 25 19" xmlns="http://www.w3.org/2000/svg">
<path d="M16.5921 8.79275L11.3558 5.30184C11.2572 5.23691 11.1428 5.19985 11.0249 5.19459C10.907 5.18934 10.7898 5.21608 10.6858 5.27198C10.5818 5.32789 10.4949 5.41087 10.4342 5.51215C10.3736 5.61343 10.3414 5.72924 10.3412 5.84729V12.8291C10.3413 12.9481 10.3739 13.0648 10.4354 13.1667C10.4969 13.2686 10.5851 13.3518 10.6903 13.4073C10.7937 13.4631 10.9103 13.4895 11.0276 13.4837C11.1449 13.478 11.2584 13.4402 11.3558 13.3746L16.5921 9.88366C16.6821 9.82395 16.756 9.7429 16.807 9.64772C16.8581 9.55255 16.8849 9.44621 16.8849 9.3382C16.8849 9.23019 16.8581 9.12385 16.807 9.02868C16.756 8.93351 16.6821 8.85245 16.5921 8.79275ZM11.6503 11.6073V7.06911L15.0539 9.3382L11.6503 11.6073ZM24.1303 3.04366C24.0354 2.67547 23.8543 2.33511 23.6021 2.05061C23.3498 1.76611 23.0336 1.54561 22.6794 1.40729C18.9594 -0.0217993 12.9921 1.91553e-05 12.7412 1.91553e-05C12.4903 1.91553e-05 6.52303 -0.0217993 2.80303 1.40729C2.44885 1.54561 2.13261 1.76611 1.88036 2.05061C1.6281 2.33511 1.44705 2.67547 1.35212 3.04366C1.06848 4.11275 0.741211 6.07638 0.741211 9.3382C0.741211 12.6 1.06848 14.5637 1.35212 15.6327C1.44705 16.0009 1.6281 16.3413 1.88036 16.6258C2.13261 16.9103 2.44885 17.1308 2.80303 17.2691C6.52303 18.6982 12.4903 18.6764 12.7412 18.6764H12.8176C13.5703 18.6764 19.1339 18.6327 22.6794 17.2691C23.0336 17.1308 23.3498 16.9103 23.6021 16.6258C23.8543 16.3413 24.0354 16.0009 24.1303 15.6327C24.4139 14.5637 24.7412 12.6 24.7412 9.3382C24.7412 6.07638 24.4139 4.11275 24.1303 3.04366ZM22.8648 15.3055C22.8219 15.472 22.7402 15.6259 22.6265 15.7548C22.5127 15.8838 22.3701 15.984 22.2103 16.0473C18.7194 17.3891 12.8067 17.3673 12.7412 17.3673C12.6758 17.3673 6.76303 17.3891 3.27212 16.0473C3.11228 15.984 2.96967 15.8838 2.85592 15.7548C2.74217 15.6259 2.6605 15.472 2.61757 15.3055C2.35576 14.3018 2.0503 12.4582 2.0503 9.3382C2.0503 6.2182 2.35576 4.37457 2.61757 3.37093C2.6605 3.20445 2.74217 3.05047 2.85592 2.92156C2.96967 2.79264 3.11228 2.69243 3.27212 2.62911C6.76303 1.28729 12.6758 1.30911 12.7412 1.30911C12.8067 1.30911 18.7194 1.28729 22.2103 2.62911C22.3701 2.69243 22.5127 2.79264 22.6265 2.92156C22.7402 3.05047 22.8219 3.20445 22.8648 3.37093C23.1267 4.37457 23.4321 6.2182 23.4321 9.3382C23.4321 12.4582 23.1267 14.3018 22.8648 15.3055Z"/>
</svg>
