<svg width="21" height="18" viewBox="0 0 21 18" xmlns="http://www.w3.org/2000/svg">
<path fill-rule="evenodd" clip-rule="evenodd" d="M20.202 0.152905C20.3805 0.302216 20.4667 0.534898 20.4284 0.764481L17.8023 16.5214C17.7656 16.7411 17.6201 16.9273 17.4157 17.0159C17.2112 17.1045 16.9759 17.0833 16.7905 16.9597L8.91203 11.7074C8.75892 11.6054 8.65568 11.4437 8.62745 11.2619C8.59922 11.08 8.64859 10.8947 8.76354 10.751L11.3742 7.48773L7.01424 10.3944C6.81821 10.525 6.56718 10.5407 6.35645 10.4353L1.10414 7.80915C0.868904 7.69153 0.726558 7.44488 0.742411 7.18235C0.758263 6.91983 0.929255 6.6921 1.17694 6.60364L19.56 0.0382579C19.7792 -0.0400244 20.0234 0.00359465 20.202 0.152905ZM3.06747 7.32275L6.60289 9.09046L14.1643 4.0495C14.4337 3.86994 14.7937 3.91349 15.0124 4.1521C15.2312 4.3907 15.2434 4.75314 15.0412 5.00591L10.2362 11.0121L16.674 15.3039L18.9496 1.65058L3.06747 7.32275Z"/>
</svg>
