<svg width="105" height="23" viewBox="0 0 105 23" fill="none" xmlns="http://www.w3.org/2000/svg">
<path d="M89.1913 14.7C92.6675 18.4 96.767 23 105 23V14C100.152 14 98.0647 11.6 94.9544 8.3L94.9264 8.27016C91.4551 4.57532 87.1567 0 78.9457 0C70.7127 0 66.3217 4.6 62.8456 8.3L62.7232 8.42984C59.677 11.6628 57.4748 14 52.6 14C47.7517 14 45.4647 11.6 42.3544 8.3L42.3264 8.27016C38.8551 4.57532 34.5567 0 26.3457 0C18.0433 0 13.7446 4.57558 10.2733 8.27048L10.2456 8.3C7.1353 11.6 4.93983 14 0 14V23C8.23304 23 12.5325 18.4 16.1002 14.7C19.2104 11.4 21.4059 9 26.3457 9C31.1531 9 33.4422 11.3596 36.6018 14.6165L36.6828 14.7L36.7108 14.7298C40.1821 18.4247 44.4806 23 52.6915 23C60.9024 23 65.2009 18.4247 68.6721 14.7298L68.7002 14.7L68.8225 14.5702C71.8687 11.3372 74.0709 9 78.9457 9C83.7941 9 86.081 11.4 89.1913 14.7Z" fill="#F1F1F1"/>
</svg>
