<svg width="39" height="17" viewBox="0 0 39 17" fill="none" xmlns="http://www.w3.org/2000/svg">
<path d="M25.4814 6.1348C27.7638 8.57393 29.375 10.3478 33 10.3478C35.7344 10.3478 37.3586 9.30007 39 7.70783V15.6335C37.3631 16.4583 35.4115 17 33 17C26.9583 17 22.9339 13.6 20.383 10.8652C18.1005 8.4261 16.4223 6.65219 12.8644 6.65219C9.30645 6.65219 8.03027 8.4261 5.74783 10.8652L5.72727 10.8873C4.1994 12.5253 2.45315 14.3974 0 15.6335V7.70784C0.494365 7.2283 0.990297 6.69937 1.5186 6.1348C4.06955 3.40001 7.49392 1.33514e-05 13.5357 1.33514e-05C19.5774 1.33514e-05 22.9304 3.40001 25.4814 6.1348Z" fill="#F1F1F1"/>
</svg>
