<svg width="39" height="17" viewBox="0 0 39 17" fill="none" xmlns="http://www.w3.org/2000/svg">
<path d="M26.9399 10.8873C29.4872 13.6182 32.6416 17 39 17L39 10.3478C35.0421 10.3478 33.3638 8.57391 31.0814 6.13478L31.0608 6.11273C28.5135 3.38176 25.3591 0 19.3336 0C13.2409 0 10.0864 3.38196 7.53896 6.11297L7.51861 6.13478C5.23617 8.57391 3.62504 10.3478 0 10.3478V17C6.04174 17 9.19687 13.6 11.815 10.8652C14.0974 8.42609 15.7085 6.65217 19.3336 6.65217C22.8614 6.65217 24.5412 8.39623 26.8599 10.8035L26.9193 10.8652L26.9399 10.8873Z" fill="#F1F1F1"/>
</svg>
