<svg width="105" height="23" fill="none" xmlns="http://www.w3.org/2000/svg"><path d="M89.191 14.7C92.668 18.4 96.767 23 105 23v-9c-4.848 0-6.935-2.4-10.046-5.7l-.028-.03C91.456 4.575 87.156 0 78.946 0c-8.233 0-12.624 4.6-16.1 8.3l-.123.13C59.677 11.663 57.475 14 52.6 14c-4.848 0-7.135-2.4-10.246-5.7l-.028-.03C38.856 4.575 34.556 0 26.346 0c-8.303 0-12.601 4.576-16.073 8.27l-.027.03C7.136 11.6 4.94 14 0 14v9c8.233 0 12.533-4.6 16.1-8.3C19.21 11.4 21.406 9 26.346 9c4.807 0 7.096 2.36 10.256 5.617l.08.083.029.03C40.182 18.425 44.48 23 52.69 23c8.211 0 12.51-4.575 15.981-8.27l.028-.03.123-.13C71.869 11.337 74.07 9 78.946 9c4.848 0 7.135 2.4 10.245 5.7Z" fill="#F1F1F1"/></svg>